<svg class="icon" viewBox="0 0 100 100" xmlns="http://www.w3.org/2000/svg" aria-hidden="true" role="img"><g fill="#231f20"><path d="M10.67 46a4.15 4.15 0 012.66 1l1-1.17a5.66 5.66 0 100 8.66l-1-1.16A4.13 4.13 0 1110.67 46zM42 44.84h-3a.77.77 0 00-.76.77v9.13a.76.76 0 00.76.76h3a5.33 5.33 0 100-10.66zM42 54h-2.3v-7.63H42A3.81 3.81 0 1142 54zM51.43 45.61v9.13a.76.76 0 00.76.76h6.35V54H53v-3h3.55v-1.59H53v-3h5.58v-1.57h-6.39a.77.77 0 00-.76.77zM74.48 45.61v9.13a.76.76 0 00.76.76h6.35V54H76v-3h3.56v-1.59H76v-3h5.59v-1.57h-6.35a.77.77 0 00-.76.77zM67.23 44.84h-3.29a.77.77 0 00-.77.77v9.89h1.53v-4.56h2.53a3 3 0 000-6.1zm0 4.57H64.7v-3h2.53a1.52 1.52 0 110 3zM93.49 44.84v7.8l-6.27-7.52a.75.75 0 00-.84-.23.77.77 0 00-.5.72v9.89h1.52v-7.79l6.27 7.52a.78.78 0 00.84.23.77.77 0 00.5-.72v-9.9zM33.85 47.58a.13.13 0 010-.06.43.43 0 000-.05l-7.42-4.95a.69.69 0 00-.78 0l-7.42 4.95v.05c0 .05 0 0 0 0v5.31c0 .06 0 0 0 0l7.42 5a.69.69 0 00.39.12.71.71 0 00.39-.12l7.42-5a.13.13 0 010-.06.28.28 0 000-.09V47.7a.28.28 0 000-.09zm-8.11 4.25l-2.47-1.66 2.47-1.65 2.47 1.65zM25 47.31l-3 2-2.43-1.61L25 44.05zm-4.28 2.86L19 51.34V49zM22 51l3 2v3.25l-5.47-3.64zm4.43 2l3-2 2.45 1.64-5.47 3.64zm4.28-2.87L32.46 49v2.33zm-1.26-.84l-3-2v-3.24l5.47 3.65z"/></g></svg>