<svg class="icon" viewBox="0 0 100 100" xmlns="http://www.w3.org/2000/svg" aria-hidden="true" role="img"><g fill="#0f0d0e"><path d="M22.29 48.33h-7.58a.35.35 0 00-.35.35v3.71a.35.35 0 00.35.35h3v4.61a9.17 9.17 0 01-2.5.22c-2.21 0-5.21-.79-5.21-7.44s3.15-7.53 6.11-7.53a11.86 11.86 0 014.36.67.36.36 0 00.43-.35l.84-3.58a.32.32 0 00-.13-.27c-.29-.21-2-1.18-6.42-1.18-5.06 0-10.25 2.15-10.25 12.5s5.94 11.89 11 11.89a12.31 12.31 0 006.66-1.77.32.32 0 00.12-.27V48.68a.36.36 0 00-.43-.35zM61.35 39.13a.36.36 0 00-.35-.36h-4.27a.35.35 0 00-.35.36v8.25h-6.65v-8.25a.36.36 0 00-.36-.36h-4.26a.36.36 0 00-.36.36v22.33a.36.36 0 00.36.36h4.26a.36.36 0 00.36-.36v-9.55h6.65v9.55a.36.36 0 00.36.36H61a.36.36 0 00.35-.36zM30.34 42.06a2.75 2.75 0 10-2.75 2.78 2.76 2.76 0 002.75-2.78zM30 56.75V46.44a.35.35 0 00-.35-.35h-4.22a.41.41 0 00-.37.39v14.77c0 .43.27.56.62.56h3.84c.42 0 .52-.2.52-.57zM77.56 46.12h-4.23a.36.36 0 00-.35.36v11a4.84 4.84 0 01-2.61.78c-1.52 0-1.93-.69-1.93-2.19v-9.59a.35.35 0 00-.35-.36h-4.3a.36.36 0 00-.35.36v10.27c0 4.44 2.48 5.52 5.88 5.52a9.92 9.92 0 005-1.54 8.85 8.85 0 00.16.91.37.37 0 00.31.19h2.74a.35.35 0 00.35-.35v-15a.36.36 0 00-.32-.36zM89.14 45.62a8 8 0 00-4 1.07v-7.56a.36.36 0 00-.36-.36h-4.31a.36.36 0 00-.36.36v22.33a.36.36 0 00.36.36h3a.34.34 0 00.31-.19 6.22 6.22 0 00.18-1A7.66 7.66 0 0089 62.26c3.89 0 6.12-2 6.12-8.86s-3.58-7.78-5.98-7.78zM87.47 58.2a5.18 5.18 0 01-2.47-.71v-7.07a5.48 5.48 0 012.19-.71c1.53-.14 3 .32 3 4-.01 3.79-.67 4.55-2.72 4.49zM42.3 46.08h-3.2v-4.22q0-.24-.27-.24h-4.36c-.17 0-.26.07-.26.23v4.37l-2.34.57a.37.37 0 00-.25.34v2.75a.36.36 0 00.35.36h2.24v6.6c0 4.91 3.44 5.39 5.76 5.39a9.61 9.61 0 002.54-.42.32.32 0 00.2-.32v-3a.36.36 0 00-.36-.35c-.18 0-.66.07-1.15.07-1.58 0-2.11-.73-2.11-1.68v-6.29h3.2a.36.36 0 00.36-.36v-3.44a.36.36 0 00-.35-.36z"/></g></svg>
