<svg xmlns="http://www.w3.org/2000/svg" viewBox="0 0 1000 1000"><defs><clipPath id="clip-path"><path class="cls-1" d="M146.84 81.61h358.23v668.16H146.84z"/></clipPath><clipPath id="clip-path-2"><path class="cls-1" d="M505.06 81.61h358.23v668.16H505.06z"/></clipPath><style>.cls-1,.cls-6{fill:none}.cls-3{fill:#212121}.cls-5{fill:#fff}.cls-5,.cls-6{stroke:#212121;stroke-miterlimit:10;stroke-width:26.98px}</style></defs><g id="Layer_8_copy_2" data-name="Layer 8 copy 2"><g clip-path="url(#clip-path)" id="_Mirror_Repeat_" data-name="&lt;Mirror Repeat&gt;"><path class="cls-3" d="M505.06 81.66a351.05 351.05 0 00-180.35 47.09c-72.82 41.87-128.16 107.31-155.88 184.4-27.45 78.71-29.24 159.39-5.17 233.32l.16.45c7.37 20.64 16.87 39.42 26.93 59.3q2.94 5.79 5.9 11.69c3.72 7.45 8.5 13.8 12.72 19.39a101.72 101.72 0 018.56 12.54 6.29 6.29 0 01.58 2.74c.55 34.65 6.75 68.26 17.91 97.19l31.46-12.14c-9.75-25.27-15.17-54.86-15.65-85.59a40 40 0 00-4.52-18 126.88 126.88 0 00-11.41-17c-3.68-4.88-7.15-9.48-9.49-14.18q-3-6-6-11.83c-9.53-18.84-18.54-36.63-25.19-55.2-21.69-66.8-20-139.94 5-211.39 25-69.43 75-128.54 140.9-166.43a317.47 317.47 0 01163.54-42.6z"/></g><g clip-path="url(#clip-path-2)" id="_Mirror_Repeat_2" data-name="&lt;Mirror Repeat&gt;"><path class="cls-3" d="M505.06 81.66a351.06 351.06 0 01180.36 47.09c72.82 41.87 128.16 107.31 155.87 184.4 27.46 78.71 29.25 159.39 5.18 233.32l-.16.45c-7.37 20.64-16.87 39.42-26.94 59.3q-2.93 5.79-5.89 11.69c-3.72 7.45-8.5 13.8-12.72 19.39a100.62 100.62 0 00-8.56 12.54 6.15 6.15 0 00-.58 2.74c-.56 34.65-6.75 68.26-17.91 97.19l-31.46-12.14c9.75-25.27 15.16-54.86 15.65-85.63a39.72 39.72 0 014.52-18 126.88 126.88 0 0111.41-17c3.67-4.88 7.14-9.48 9.49-14.18q3-6 6-11.83c9.53-18.84 18.54-36.63 25.19-55.2 21.69-66.8 19.95-139.94-5-211.39-25-69.43-75-128.54-140.9-166.43a317.48 317.48 0 00-163.55-42.6z"/></g></g><path class="cls-3" d="M707.11 260.53c-12.11-21.86-42.06-18.62-53.11 3.79C600.12 374.1 547.31 356.77 564 415c21.88 71.69 44.79 87.83 103.77 87.83s106.81-38.64 106.81-86.3c-.01-28.1-37.02-100.88-67.47-156zm-72.72 208a20.07 20.07 0 1120.06-20.07 20.07 20.07 0 01-20.06 20.09zm70.68 0a40.14 40.14 0 1140.14-40.14 40.13 40.13 0 01-40.14 40.16z" id="Layer_4" data-name="Layer 4"/><path class="cls-3" d="M343.51 257.8c-11.66-23.74-43.43-27.17-56.22-4C255 312.18 215.84 389.27 215.84 419c0 50.48 45.88 163 108.37 163s91.51-88.7 114.69-164.64c17.67-61.63-38.27-43.26-95.39-159.56zm-54.06 216.34A42.52 42.52 0 11332 431.63a42.51 42.51 0 01-42.55 42.51zm74.88 0a21.26 21.26 0 1121.26-21.26 21.26 21.26 0 01-21.26 21.26z" id="Layer_14" data-name="Layer 14"/><g id="Layer_5" data-name="Layer 5"><ellipse class="cls-3" cx="480.55" cy="558.05" rx="75.99" ry="42.02" transform="matrix(.38 -.93 .93 .38 -217.55 792.57)"/><ellipse class="cls-3" cx="523.91" cy="557.9" rx="42.02" ry="75.99" transform="rotate(-22.84 523.809 557.84)"/></g><g id="Layer_3" data-name="Layer 3"><ellipse class="cls-5" cx="300.11" cy="742.17" rx="61.41" ry="75.99"/><ellipse class="cls-6" cx="422.94" cy="773.24" rx="61.41" ry="75.99"/><ellipse class="cls-6" cx="545.77" cy="773.24" rx="61.41" ry="75.99"/><ellipse class="cls-5" cx="728.88" cy="717.18" rx="41.21" ry="50.99"/><ellipse class="cls-6" cx="652.67" cy="764.22" rx="42.64" ry="75.61" transform="rotate(-14.66 652.463 764.024)"/></g><g id="Layer_11" data-name="Layer 11"><ellipse class="cls-3" cx="486.67" cy="268.08" rx="25.09" ry="13.88" transform="rotate(-81.31 486.63 268.093)"/><ellipse class="cls-3" cx="470.15" cy="242.41" rx="25.09" ry="13.88" transform="rotate(-29.88 470.083 242.396)"/><ellipse class="cls-3" cx="479.92" cy="213.49" rx="13.88" ry="25.09" transform="rotate(-68.45 479.903 213.492)"/><ellipse class="cls-3" cx="508.63" cy="203.1" rx="13.88" ry="25.09" transform="rotate(-17.02 508.617 203.092)"/><ellipse class="cls-3" cx="534.65" cy="219.06" rx="25.09" ry="13.88" transform="rotate(-55.59 534.66 219.06)"/><ellipse class="cls-3" cx="538.39" cy="249.36" rx="25.09" ry="13.88" transform="rotate(-4.16 538.76 249.503)"/><ellipse class="cls-3" cx="517.04" cy="271.18" rx="13.88" ry="25.09" transform="rotate(-42.73 517.09 271.178)"/></g></svg>
