<svg xmlns="http://www.w3.org/2000/svg" viewBox="0 0 451.74 135"><defs><style>.cls-1{fill:#212121;}</style></defs><g id="Layer_2" data-name="Layer 2"><path class="cls-1" d="M7.14,8.35V119.41H118.19V8.35Zm103.71,56c-1.19,2-2.07,5.14-5,4.75-2.15.28-3.77,2.23-5.73,3.13a7.33,7.33,0,0,1-6.35.34c-8-3.16-19.52-3.45-22.22,6.65-1.24,3.06-2.3,21.37-2.3,26,0,0-17.62-3.42-34.15-20.34l4.31-11.32H25.91l9.76-10.35H18.87l9.77-10.34H12.69L30.45,34c7.73-8.12,23-14.32,33.08-10.09l2.43.73c.51.15,3.37,1,4,1.2,4.8,1.44,9.91-1.89,14.46,1.06a8.24,8.24,0,0,1,4.1,6.22,7.29,7.29,0,0,0,3.61,5.49c5.12,2.85,10.75,4.55,16.11,6.83a6.81,6.81,0,0,1,2.86,2.06c1.81,2.47,1.13,5.87,1.57,8.77h0A15.24,15.24,0,0,1,110.85,64.32Z"/><path class="cls-1" d="M163,100.23c-4.81-.18-4.85,9.1-.07,9C167.9,109.44,168,100,163,100.23Z"/><path class="cls-1" d="M226.59,81.74h-105v37.58H236.54V81.94C233.23,81.88,229.91,81.82,226.59,81.74Zm-73.37,30.5h-6.28v-8.41c.34-3.53-3-4.73-4.82-2.63-1.13,1.38-.53,6.1-.67,7.81h2v3.23h-6.29v-8.41c.33-3.56-3-4.72-4.77-2.63-1.16,1.38-.54,6.09-.69,7.81h2.83v3.23h-9.11V109h2V100.5h-2V97.24h6.28V99.5c1.82-3.65,8.27-3.4,9.45.7,1.79-5.09,10.46-4,10,2V109h2Zm15.59-1.78c-8.28,6.42-18.29-2.34-11.74-11.16,2.36-3.15,9.69-3.14,12.07,0C171.88,102.27,171.88,107.85,168.81,110.46Zm18.27,1.78H174l-.44-2.26,8.25-9.51h-4.65l-.67,2.36-3.16-.34.53-5.25H187l.33,2.23L179,109h4.86l.7-2.32L188,107Zm8.52,0h-4.46v-5.39h4.46Zm0-9.61h-4.46V97.24h4.46Zm2.83,9.61,6.48-22.88h4.23l-6.49,22.88Zm8.71,0,6.45-22.88h4.23l-6.49,22.88Zm23,.33a3,3,0,0,1-3.33-3,5.42,5.42,0,0,1-7.9,2,3.66,3.66,0,0,1-1.48-3.33c0-4.84,5.86-4.67,9.38-4.39a9.43,9.43,0,0,0-.3-2.76c-.35-1.44-3.24-1.3-4.42-.66l-.5,1.69-3.39-.4.56-3.46c4.27-2,12.2-2.61,12.41,3.76v6.49a1.07,1.07,0,0,0,1.59,1.06l.07,2.26A5.54,5.54,0,0,1,230.16,112.57Z"/><path class="cls-1" d="M224.7,105.72c-2-.16-3.81,1.35-2.46,3.31,1.91,1.56,4.76-.58,4.59-3.11A19.17,19.17,0,0,0,224.7,105.72Z"/></g><g id="Layer_4" data-name="Layer 4"><path class="cls-1" d="M175,31.38h-5.67v22c4.31,0,10.92.52,13.63-3C188.7,43.81,185.36,30.68,175,31.38Z"/><path class="cls-1" d="M361.77,47.38c-2.47.11-5.57.33-5.5,3.49a2.66,2.66,0,0,0,1.13,2.48c3.82,2.23,8.59-1.43,7.86-5.76C364.14,47.54,362.94,47.37,361.77,47.38Z"/><path class="cls-1" d="M121.63,8.16V79h323V8.16ZM387.39,28.69h3.19v3.82h-3.19Zm-79.46,0h3.19v3.82h-3.19Zm-35.83,0h3.2v3.82h-3.2ZM159.34,31.42h-3.57V53.35h3.4V56h-9.7V53.35h3.19V36h-.17l-9.16,18.69H141.7l-9.37-18.82h-.17V53.35h3.28V56h-9.66V53.35h3.44V31.42h-3.57V28.73h6.26l10.63,21.38h.16L153,28.73h6.3Zm25.93,20.77Q181.59,56,175.13,56H162.78V53.39h3.44v-22h-3.44V28.73H175q6.67,0,10.31,3.85C190.18,37.39,190.15,47.42,185.27,52.19Zm34.38-20.77h-3.41V56h-2l-15.83-21.5h-.17V53.35h4.32V56H192.18V53.35h3.15V31.42h-3.61V28.73h5.88l15.54,21.05h.16V31.42h-4.11V28.73h10.46Zm46.36,0h-3.57V53.35h3.41V56h-9.71V53.35h3.2V36h-.17L250,54.65h-1.64L239,35.83h-.17V53.35h3.28V56h-9.66V53.35h3.44V31.42h-3.57V28.73h6.26l10.62,21.38h.17l10.33-21.38H266ZM278.61,56h-9.49V53.64h3.28V39.74H269v-2.4h6.3v16.3h3.27Zm24.53,0h-9.45V53.64h3.24V45c0-3.42-1.22-5.4-4.33-5.51a5.59,5.59,0,0,0-5.67,5.46v8.74h3.28V56h-9.5V53.64H284V39.74h-3.36v-2.4h6.3v3.32c1.82-3.91,7.95-5,11.13-2q1.85,1.68,1.85,5.41v9.58h3.23Zm11.3,0H305V53.64h3.27V39.74h-3.36v-2.4h6.3v16.3h3.28Zm36.71,0H342.2V53.64h2.73V45c0-2-.4-3.44-1.2-4.27-3.44-3.33-8.42.4-8.42,4.39v8.57h3.24V56h-8.91V53.64h2.69V45q0-3.08-1.17-4.29c-3.37-3.28-8.42.39-8.4,4.33v8.65h3.44V56h-9.66V53.64h3.28V39.74H316.5v-2.4h6.26v3.49c2.26-5,11-5.4,12.26.63,1.52-4.37,7.69-6.06,11.07-2.81q1.79,1.68,1.78,5.41v9.58h3.28Zm17.51.42c-2.24,0-3.39-1.33-3.4-3.86a7.16,7.16,0,0,1-10.14,2.73q-1.92-1.14-1.92-4.12c0-6.25,7.61-5.89,12.06-5.58,0-1.59,0-3.82-.86-5-1.11-1.76-5.24-1.44-7-.5l-.71,3.23-2.43-.29.67-4.33c4.6-3.1,13.81-2.67,13.27,4.45v8.91c-.12,2,1.5,2.36,2.85,1.76l.05,1.93A5,5,0,0,1,368.66,56.45ZM382.14,56h-9.49V53.64h3.28V29.53h-3.32V27.14h6.26v26.5h3.27Zm11.76,0h-9.49V53.64h3.28V39.74h-3.36v-2.4h6.3v16.3h3.27Zm15.31-1.13c-3.36,2.37-9.3,1.84-12.75-.29l.59-4.25,2.35.26-.12,2.47c2.71,1.34,8.79,1.73,9.2-2.22,0-2.35-2.12-2.67-4.1-3.11s-4.81-.68-6.45-2.16c-1.95-1.68-1.41-6.38,1-7.42,3.36-2,8.08-1.37,11.26.51l.46,4.37-2.44.29-.46-3c-2.34-1.27-7.66-1.77-7.85,1.84.32,4.28,8,2.25,10.41,5.15C412.28,49.18,411.75,53.46,409.21,54.9Zm13.38,1.55c-3.72,0-5.81-2.29-5.8-5.92V39.7h-3V37.34h3v-6h2.94v6H427V39.7h-7.31V50.15a4.55,4.55,0,0,0,.74,2.71c2,2.2,5.58.85,5.81-2.58l2.23.71C428,54.63,426,56.45,422.59,56.45Z"/></g></svg>