<svg class="icon" viewBox="0 0 100 100" xmlns="http://www.w3.org/2000/svg" aria-hidden="true" role="img"><path d="M97.29 25.51a8.7 8.7 0 011 7.56L82.23 86.15A12.81 12.81 0 0170.57 95H16.49C10.51 95 4.12 90.25 2 84.16a10.84 10.84 0 01-.12-7.44c.12-1.17.35-2.34.41-3.75.06-.94-.47-1.7-.35-2.41.23-1.4 1.46-2.4 2.4-4a41.92 41.92 0 004.36-10.7c.29-1.11-.3-2.4 0-3.4s1.4-1.93 2-3c1.58-2.69 3.63-7.9 3.92-10.66.12-1.23-.47-2.58-.11-3.52.41-1.34 1.7-1.93 2.58-3.1a31 31 0 004.1-10.61c.12-1-.47-2-.29-3s1.64-2.29 2.58-3.64c2.46-3.63 2.93-11.66 10.37-9.55l-.06.18a13 13 0 013-.53h44.57A8.11 8.11 0 0188 8.28a8.64 8.64 0 011 7.62L73 69c-2.75 9-4.28 11-11.72 11H10.4a2.74 2.74 0 00-2.23.88c-.46.7-.52 1.23-.06 2.52 1.18 3.4 5.22 4.1 8.44 4.1h54.08c2.17 0 4.69-1.23 5.34-3.34l17.58-57.83a9.42 9.42 0 00.29-3.33 7.84 7.84 0 013.46 2.5zM35 25.62a1.31 1.31 0 001.29 1.88h35.57a2.81 2.81 0 002.46-1.88l1.23-3.75A1.31 1.31 0 0074.26 20H38.64a2.82 2.82 0 00-2.46 1.87zm-4.86 15a1.31 1.31 0 001.29 1.88H67a2.81 2.81 0 002.46-1.88l1.23-3.75A1.31 1.31 0 0069.4 35H33.78a2.82 2.82 0 00-2.46 1.87z" fill="#212121"/></svg>
